<svg width="14" height="16" viewBox="0 0 14 16" fill="none" xmlns="http://www.w3.org/2000/svg">
<path d="M13.5281 12.469C13.2862 13.028 12.9998 13.5426 12.6679 14.0157C12.2156 14.6606 11.8452 15.107 11.5598 15.3549C11.1173 15.7618 10.6433 15.9702 10.1357 15.982C9.77122 15.982 9.33173 15.8783 8.82014 15.668C8.30687 15.4586 7.83518 15.3549 7.40389 15.3549C6.95156 15.3549 6.46644 15.4586 5.94754 15.668C5.42785 15.8783 5.0092 15.988 4.68911 15.9988C4.20231 16.0196 3.71709 15.8052 3.23276 15.3549C2.92364 15.0853 2.53698 14.6231 2.07379 13.9683C1.57681 13.269 1.16823 12.4582 0.848146 11.5338C0.505342 10.5353 0.333496 9.56839 0.333496 8.63232C0.333496 7.56006 0.565192 6.63525 1.02928 5.86026C1.39401 5.23776 1.87922 4.74671 2.48651 4.38623C3.0938 4.02574 3.74998 3.84205 4.45662 3.83029C4.84328 3.83029 5.35032 3.94989 5.98043 4.18495C6.60875 4.42079 7.0122 4.5404 7.18908 4.5404C7.32132 4.5404 7.76951 4.40055 8.52928 4.12174C9.24778 3.86318 9.85418 3.75612 10.351 3.79829C11.6971 3.90693 12.7084 4.43758 13.381 5.3936C12.1771 6.12306 11.5815 7.14476 11.5934 8.45544C11.6042 9.47635 11.9746 10.3259 12.7025 11.0004C13.0323 11.3135 13.4007 11.5555 13.8106 11.7273C13.7217 11.9851 13.6279 12.232 13.5281 12.469ZM10.4408 0.320274C10.4408 1.12046 10.1485 1.86759 9.56579 2.55912C8.86261 3.38122 8.01207 3.85627 7.08972 3.78131C7.07797 3.68531 7.07116 3.58428 7.07116 3.47811C7.07116 2.70993 7.40557 1.88783 7.99942 1.21565C8.29591 0.875319 8.67298 0.592335 9.13025 0.366593C9.58653 0.14422 10.0181 0.0212425 10.424 0.000183105C10.4359 0.107155 10.4408 0.214134 10.4408 0.320264V0.320274Z" fill="#121212"/>
</svg>
