<svg width="180" height="180" viewBox="0 0 180 180" fill="none" xmlns="http://www.w3.org/2000/svg">
<path d="M150.007 152.169C142.453 152.169 136.338 158.415 136.338 166.13C136.338 173.753 142.453 179.999 150.007 179.999C157.472 179.999 163.587 173.753 163.587 166.13C163.587 158.415 157.472 152.169 150.007 152.169Z" fill="#E7E7E7"/>
<path d="M48.8366 152.169C41.2825 152.169 35.1672 158.415 35.1672 166.13C35.1672 173.753 41.2825 179.999 48.8366 179.999C56.3008 179.999 62.416 173.753 62.416 166.13C62.416 158.415 56.3008 152.169 48.8366 152.169Z" fill="#E7E7E7"/>
<path fill-rule="evenodd" clip-rule="evenodd" d="M134.002 83.0962H109.091C105.314 83.0962 102.346 79.9734 102.346 76.2078C102.346 72.3503 105.314 69.3193 109.091 69.3193H134.002C137.779 69.3193 140.747 72.3503 140.747 76.2078C140.747 79.9734 137.779 83.0962 134.002 83.0962ZM176.269 41.5011C172.672 37.2762 169.075 35.3474 163.589 35.3474H42.1388C39.2611 35.3474 36.9229 33.1431 36.6531 30.1949L34.9444 9.62142C34.6747 6.49867 32.4264 3.93617 29.3688 3.37591L7.92051 0.0786447C4.23338 -0.481615 0.726113 2.00741 0.096604 5.7639C-0.532905 9.43773 1.98513 13.0197 5.58233 13.6626L19.1617 16.0506L27.4353 116.172C28.4245 128.295 38.3168 137.654 50.2775 137.654H148.391C159.812 137.654 169.525 129.122 171.143 117.54L179.687 57.2894C180.496 51.7878 179.867 45.726 176.269 41.5011Z" fill="#E7E7E7"/>
</svg>
