<svg width="20" height="23" viewBox="0 0 20 23" fill="none" xmlns="http://www.w3.org/2000/svg">
<path d="M7.13478 20.8217V17.5728C7.13478 16.7435 7.77217 16.0712 8.55844 16.0712H11.4326C11.8102 16.0712 12.1723 16.2294 12.4393 16.511C12.7063 16.7926 12.8563 17.1746 12.8563 17.5728V20.8217C12.8539 21.1665 12.9821 21.498 13.2124 21.7427C13.4427 21.9874 13.7561 22.125 14.0829 22.125H16.0438C16.9596 22.1275 17.8388 21.7455 18.4872 21.0634C19.1356 20.3812 19.5 19.4549 19.5 18.4889V9.23354C19.5 8.45324 19.1721 7.71308 18.6046 7.21246L11.934 1.59311C10.7737 0.607847 9.11111 0.639658 7.98539 1.66867L1.46701 7.21246C0.872741 7.69832 0.517552 8.44068 0.5 9.23354V18.4795C0.5 20.4928 2.04738 22.125 3.95617 22.125H5.87229C6.55123 22.125 7.103 21.5472 7.10792 20.8311L7.13478 20.8217Z" fill="#54408C"/>
</svg>
